<?xml version="1.0" standalone="no"?><!DOCTYPE svg PUBLIC "-//W3C//DTD SVG 1.1//EN" "http://www.w3.org/Graphics/SVG/1.1/DTD/svg11.dtd"><svg t="1536072073559" class="icon" style="" viewBox="0 0 1024 1024" version="1.1" xmlns="http://www.w3.org/2000/svg" p-id="1950" xmlns:xlink="http://www.w3.org/1999/xlink" width="48" height="48"><defs><style type="text/css"></style></defs><path d="M435.2 0H236.8v633.6c0 153.6-44.8 198.4-121.6 198.4-38.4 0-70.4-6.4-96-19.2L0 998.4c38.4 19.2 89.6 25.6 134.4 25.6 179.2 0 300.8-102.4 300.8-390.4V0z m352 0C601.6 0 486.4 128 486.4 294.4c0 147.2 89.6 236.8 224 294.4 96 38.4 134.4 76.8 134.4 140.8 0 64-44.8 108.8-128 108.8-76.8 0-147.2-32-192-64L486.4 960c44.8 32 128 64 217.6 64 217.6 0 320-140.8 320-307.2 0-140.8-64-230.4-204.8-294.4-102.4-51.2-147.2-76.8-147.2-140.8 0-51.2 38.4-96 115.2-96 76.8 0 128 32 160 51.2l44.8-185.6c-44.8-32-115.2-51.2-204.8-51.2z m0 0" p-id="1951"></path></svg>