<?xml version="1.0" standalone="no"?><!DOCTYPE svg PUBLIC "-//W3C//DTD SVG 1.1//EN" "http://www.w3.org/Graphics/SVG/1.1/DTD/svg11.dtd"><svg t="1536072256919" class="icon" style="" viewBox="0 0 1024 1024" version="1.1" xmlns="http://www.w3.org/2000/svg" p-id="2967" xmlns:xlink="http://www.w3.org/1999/xlink" width="48" height="48"><defs><style type="text/css"></style></defs><path d="M743.68 372.672L513.408 490.88 283.136 346.048 505.6 230.912l238.08 141.76z m-489.28 291.2L490.368 805.76V527.744L254.4 385.664v278.208zM539.264 804.48L769.6 686.08V408.064L539.264 526.4v278.08z m472-292.48a499.2 499.2 0 0 1-499.328 499.2A499.2 499.2 0 0 1 12.736 512a499.2 499.2 0 0 1 499.2-499.2A499.2 499.2 0 0 1 1011.264 512z m-64 12.736a435.2 435.2 0 0 0-435.328-435.2 435.2 435.2 0 0 0-435.2 435.2c0 240.448 194.816 435.2 435.2 435.2a435.2 435.2 0 0 0 435.328-435.2z" fill="" p-id="2968"></path></svg>